<svg xmlns="http://www.w3.org/2000/svg" xmlns:xlink="http://www.w3.org/1999/xlink" version="1.1" width="1080" height="1080" viewBox="0 0 1080 1080" xml:space="preserve">
<desc>Created with Fabric.js 3.5.0</desc>
<defs>
</defs>
<rect x="0" y="0" width="100%" height="100%" fill="#ffffff"/>
<g transform="matrix(-0.0365 -0.0666 -0.0584 0.032 543.627 518.4922)" id="390619">
<path style="stroke: none; stroke-width: 1; stroke-dasharray: none; stroke-linecap: butt; stroke-dashoffset: 0; stroke-linejoin: miter; stroke-miterlimit: 4; is-custom-font: none; font-file-url: none; fill: rgb(61,35,154); fill-opacity: 0.29; fill-rule: nonzero; opacity: 1;" vector-effect="non-scaling-stroke" transform=" translate(-4630.0451, -6400.321)" d="M 4590 12790 c -504 -70 -1061 -319 -1550 -694 c -180 -137 -298 -243 -500 -445 c -205 -205 -343 -365 -514 -591 c -809 -1074 -1427 -2586 -1821 -4455 c -397 -1880 -213 -3379 554 -4523 c 644 -962 1746 -1656 3111 -1960 c 415 -93 737 -131 945 -113 c 444 40 933 150 1360 308 c 677 251 1220 590 1686 1053 c 235 234 352 373 521 620 c 794 1159 1050 2750 762 4740 c -94 651 -444 1797 -817 2675 c -547 1291 -1251 2277 -2015 2823 c -359 258 -747 434 -1126 512 c -224 47 -470 67 -596 50 z" stroke-linecap="round"/>
</g>
</svg>